<svg xmlns="http://www.w3.org/2000/svg" width="181" height="104" viewBox="0 0 181 104"><g transform="translate(-15,-32)"><g id="Stone-03"><path id="Stone-paper-face" d="M 39.59,112.21 L 18.41,86.99 Q 17.00,85.30 17.98,83.33 L 29.02,61.27 Q 30.00,59.30 32.17,58.92 L 57.83,54.48 Q 60.00,54.10 61.98,53.15 L 85.02,42.05 Q 87.00,41.10 89.18,40.84 L 138.82,34.86 Q 141.00,34.60 143.00,35.51 L 159.00,42.79 Q 161.00,43.70 162.39,45.40 L 176.61,62.80 Q 178.00,64.50 179.91,65.59 L 192.09,72.51 Q 194.00,73.60 193.48,75.74 L 188.52,96.16 Q 188.00,98.30 186.30,99.70 L 170.70,112.50 Q 169.00,113.90 166.81,114.05 L 134.19,116.35 Q 132.00,116.50 130.49,118.10 L 122.51,126.60 Q 121.00,128.20 118.81,128.04 L 88.19,125.76 Q 86.00,125.60 84.11,126.73 L 74.89,132.27 Q 73.00,133.40 71.12,132.26 L 42.88,115.04 Q 41.00,113.90 39.59,112.21 Z" fill="#F3F0E8"/><path id="Inward-facet-01" d="M 17.00,85.30 L 30.00,59.30 L 35.71,61.14 L 26.00,85.34 Z" fill="#244EFF" fill-opacity="0.028"/><path id="Broken-inner-edge-01" d="M 26.00,85.34 L 32.16,74.70 L 35.71,61.14" fill="none" stroke="#244EFF" stroke-width="0.58" stroke-opacity="0.42" stroke-linecap="round" stroke-linejoin="round"/><path id="Inward-facet-02" d="M 30.00,59.30 L 60.00,54.10 L 70.24,60.35 L 35.71,61.14 Z" fill="#244EFF" fill-opacity="0.065"/><path id="Hatch-00" d="M 36.32,60.75 L 41.18,57.65" fill="none" stroke="#244EFF" stroke-width="0.48" stroke-opacity="0.25" stroke-linecap="round" stroke-linejoin="round"/><path id="Hatch-01" d="M 42.87,60.56 L 49.68,56.20" fill="none" stroke="#244EFF" stroke-width="0.48" stroke-opacity="0.25" stroke-linecap="round" stroke-linejoin="round"/><path id="Hatch-02" d="M 49.35,60.41 L 58.25,54.72" fill="none" stroke="#244EFF" stroke-width="0.48" stroke-opacity="0.25" stroke-linecap="round" stroke-linejoin="round"/><path id="Hatch-03" d="M 55.84,60.26 L 62.13,56.24" fill="none" stroke="#244EFF" stroke-width="0.48" stroke-opacity="0.25" stroke-linecap="round" stroke-linejoin="round"/><path id="Hatch-04" d="M 62.08,60.27 L 65.57,58.04" fill="none" stroke="#244EFF" stroke-width="0.48" stroke-opacity="0.25" stroke-linecap="round" stroke-linejoin="round"/><path id="Broken-inner-edge-02" d="M 35.71,61.14 L 52.58,61.33 L 70.24,60.35" fill="none" stroke="#244EFF" stroke-width="0.58" stroke-opacity="0.42" stroke-linecap="round" stroke-linejoin="round"/><path id="Chip-seam-02" d="M 60.00,54.10 L 70.24,60.35" fill="none" stroke="#244EFF" stroke-width="0.53" stroke-opacity="0.35" stroke-linecap="round" stroke-linejoin="round"/><path id="Inward-facet-03" d="M 60.00,54.10 L 87.00,41.10 L 90.89,48.09 L 70.24,60.35 Z" fill="#244EFF" fill-opacity="0.02"/><path id="Broken-inner-edge-03" d="M 70.24,60.35 L 80.25,55.51 L 90.89,48.09" fill="none" stroke="#244EFF" stroke-width="0.58" stroke-opacity="0.42" stroke-linecap="round" stroke-linejoin="round"/><path id="Inward-facet-04" d="M 87.00,41.10 L 141.00,34.60 L 135.55,44.16 L 90.89,48.09 Z" fill="#244EFF" fill-opacity="0.045"/><path id="Broken-inner-edge-04" d="M 90.89,48.09 L 111.01,47.19 L 135.55,44.16" fill="none" stroke="#244EFF" stroke-width="0.58" stroke-opacity="0.42" stroke-linecap="round" stroke-linejoin="round"/><path id="Inward-facet-05" d="M 141.00,34.60 L 161.00,43.70 L 157.20,46.95 L 135.55,44.16 Z" fill="#244EFF" fill-opacity="0.075"/><path id="Hatch-00" d="M 138.74,39.21 L 143.31,36.28" fill="none" stroke="#244EFF" stroke-width="0.48" stroke-opacity="0.25" stroke-linecap="round" stroke-linejoin="round"/><path id="Hatch-01" d="M 137.64,43.91 L 146.86,38.01" fill="none" stroke="#244EFF" stroke-width="0.48" stroke-opacity="0.25" stroke-linecap="round" stroke-linejoin="round"/><path id="Hatch-02" d="M 142.84,44.58 L 150.52,39.67" fill="none" stroke="#244EFF" stroke-width="0.48" stroke-opacity="0.25" stroke-linecap="round" stroke-linejoin="round"/><path id="Hatch-03" d="M 148.05,45.25 L 154.17,41.33" fill="none" stroke="#244EFF" stroke-width="0.48" stroke-opacity="0.25" stroke-linecap="round" stroke-linejoin="round"/><path id="Hatch-04" d="M 153.17,45.97 L 157.91,42.94" fill="none" stroke="#244EFF" stroke-width="0.48" stroke-opacity="0.25" stroke-linecap="round" stroke-linejoin="round"/><path id="Broken-inner-edge-05" d="M 135.55,44.16 L 144.56,46.30 L 157.20,46.95" fill="none" stroke="#244EFF" stroke-width="0.58" stroke-opacity="0.42" stroke-linecap="round" stroke-linejoin="round"/><path id="Chip-seam-05" d="M 161.00,43.70 L 157.20,46.95" fill="none" stroke="#244EFF" stroke-width="0.53" stroke-opacity="0.35" stroke-linecap="round" stroke-linejoin="round"/><path id="Chipped-ridge-05" d="M 153.00,40.06 L 154.68,42.82 L 135.55,44.16" fill="none" stroke="#244EFF" stroke-width="0.43" stroke-opacity="0.35" stroke-linecap="round" stroke-linejoin="round"/><path id="Inward-facet-06" d="M 161.00,43.70 L 178.00,64.50 L 163.72,69.09 L 157.20,46.95 Z" fill="#244EFF" fill-opacity="0.025"/><path id="Inward-facet-08" d="M 194.00,73.60 L 188.00,98.30 L 182.08,97.32 L 185.10,74.92 Z" fill="#244EFF" fill-opacity="0.05"/><path id="Hatch-00" d="M 185.28,77.42 L 189.85,74.49" fill="none" stroke="#244EFF" stroke-width="0.48" stroke-opacity="0.19" stroke-linecap="round" stroke-linejoin="round"/><path id="Hatch-01" d="M 184.79,81.73 L 192.68,76.68" fill="none" stroke="#244EFF" stroke-width="0.48" stroke-opacity="0.19" stroke-linecap="round" stroke-linejoin="round"/><path id="Hatch-02" d="M 184.21,86.11 L 191.53,81.42" fill="none" stroke="#244EFF" stroke-width="0.48" stroke-opacity="0.19" stroke-linecap="round" stroke-linejoin="round"/><path id="Hatch-03" d="M 183.62,90.49 L 190.38,86.16" fill="none" stroke="#244EFF" stroke-width="0.48" stroke-opacity="0.19" stroke-linecap="round" stroke-linejoin="round"/><path id="Hatch-04" d="M 183.03,94.86 L 189.23,90.89" fill="none" stroke="#244EFF" stroke-width="0.48" stroke-opacity="0.19" stroke-linecap="round" stroke-linejoin="round"/><path id="Hatch-05" d="M 185.15,97.51 L 188.35,95.45" fill="none" stroke="#244EFF" stroke-width="0.48" stroke-opacity="0.19" stroke-linecap="round" stroke-linejoin="round"/><path id="Broken-inner-edge-08" d="M 185.10,74.92 L 182.16,85.01 L 182.08,97.32" fill="none" stroke="#244EFF" stroke-width="0.58" stroke-opacity="0.42" stroke-linecap="round" stroke-linejoin="round"/><path id="Inward-facet-09" d="M 188.00,98.30 L 169.00,113.90 L 158.24,108.59 L 182.08,97.32 Z" fill="#244EFF" fill-opacity="0.028"/><path id="Broken-inner-edge-09" d="M 182.08,97.32 L 170.04,102.03 L 158.24,108.59" fill="none" stroke="#244EFF" stroke-width="0.58" stroke-opacity="0.42" stroke-linecap="round" stroke-linejoin="round"/><path id="Inward-facet-10" d="M 169.00,113.90 L 132.00,116.50 L 127.62,109.81 L 158.24,108.59 Z" fill="#244EFF" fill-opacity="0.065"/><path id="Hatch-00" d="M 129.08,111.39 L 131.51,109.83" fill="none" stroke="#244EFF" stroke-width="0.48" stroke-opacity="0.25" stroke-linecap="round" stroke-linejoin="round"/><path id="Hatch-01" d="M 131.30,113.97 L 137.80,109.81" fill="none" stroke="#244EFF" stroke-width="0.48" stroke-opacity="0.25" stroke-linecap="round" stroke-linejoin="round"/><path id="Hatch-02" d="M 134.46,115.94 L 144.46,109.54" fill="none" stroke="#244EFF" stroke-width="0.48" stroke-opacity="0.25" stroke-linecap="round" stroke-linejoin="round"/><path id="Hatch-03" d="M 141.49,115.45 L 151.13,109.28" fill="none" stroke="#244EFF" stroke-width="0.48" stroke-opacity="0.25" stroke-linecap="round" stroke-linejoin="round"/><path id="Hatch-04" d="M 148.51,114.96 L 157.68,109.08" fill="none" stroke="#244EFF" stroke-width="0.48" stroke-opacity="0.25" stroke-linecap="round" stroke-linejoin="round"/><path id="Hatch-05" d="M 155.53,114.46 L 161.21,110.82" fill="none" stroke="#244EFF" stroke-width="0.48" stroke-opacity="0.25" stroke-linecap="round" stroke-linejoin="round"/><path id="Hatch-06" d="M 162.23,114.17 L 165.06,112.36" fill="none" stroke="#244EFF" stroke-width="0.48" stroke-opacity="0.25" stroke-linecap="round" stroke-linejoin="round"/><path id="Broken-inner-edge-10" d="M 158.24,108.59 L 143.74,108.62 L 127.62,109.81" fill="none" stroke="#244EFF" stroke-width="0.58" stroke-opacity="0.42" stroke-linecap="round" stroke-linejoin="round"/><path id="Chip-seam-10" d="M 132.00,116.50 L 127.62,109.81" fill="none" stroke="#244EFF" stroke-width="0.53" stroke-opacity="0.35" stroke-linecap="round" stroke-linejoin="round"/><path id="Inward-facet-11" d="M 132.00,116.50 L 121.00,128.20 L 118.69,117.45 L 127.62,109.81 Z" fill="#244EFF" fill-opacity="0.02"/><path id="Broken-inner-edge-11" d="M 127.62,109.81 L 123.34,112.64 L 118.69,117.45" fill="none" stroke="#244EFF" stroke-width="0.58" stroke-opacity="0.42" stroke-linecap="round" stroke-linejoin="round"/><path id="Inward-facet-12" d="M 121.00,128.20 L 86.00,125.60 L 88.72,121.41 L 118.69,117.45 Z" fill="#244EFF" fill-opacity="0.045"/><path id="Broken-inner-edge-12" d="M 118.69,117.45 L 105.35,118.49 L 88.72,121.41" fill="none" stroke="#244EFF" stroke-width="0.58" stroke-opacity="0.42" stroke-linecap="round" stroke-linejoin="round"/><path id="Inward-facet-13" d="M 86.00,125.60 L 73.00,133.40 L 82.48,121.77 L 88.72,121.41 Z" fill="#244EFF" fill-opacity="0.075"/><path id="Hatch-00" d="M 77.29,128.54 L 87.73,121.86" fill="none" stroke="#244EFF" stroke-width="0.48" stroke-opacity="0.25" stroke-linecap="round" stroke-linejoin="round"/><path id="Broken-inner-edge-13" d="M 88.72,121.41 L 86.48,120.78 L 82.48,121.77" fill="none" stroke="#244EFF" stroke-width="0.58" stroke-opacity="0.42" stroke-linecap="round" stroke-linejoin="round"/><path id="Chip-seam-13" d="M 73.00,133.40 L 82.48,121.77" fill="none" stroke="#244EFF" stroke-width="0.53" stroke-opacity="0.35" stroke-linecap="round" stroke-linejoin="round"/><path id="Chipped-ridge-13" d="M 78.20,130.28 L 79.91,126.88 L 88.72,121.41" fill="none" stroke="#244EFF" stroke-width="0.43" stroke-opacity="0.35" stroke-linecap="round" stroke-linejoin="round"/><path id="Inward-facet-14" d="M 73.00,133.40 L 41.00,113.90 L 49.36,110.58 L 82.48,121.77 Z" fill="#244EFF" fill-opacity="0.025"/><g id="Closed-chip-returns"><path id="Closed-chip-return-01" d="M 26.00,85.34 L 17.60,85.23" fill="none" stroke="#244EFF" stroke-width="0.53" stroke-opacity="0.35" stroke-linecap="round" stroke-linejoin="round"/><path id="Closed-chip-return-02" d="M 185.10,74.92 L 193.39,73.86" fill="none" stroke="#244EFF" stroke-width="0.53" stroke-opacity="0.35" stroke-linecap="round" stroke-linejoin="round"/></g><path id="Top-down-outline" d="M 39.59,112.21 L 18.41,86.99 Q 17.00,85.30 17.98,83.33 L 29.02,61.27 Q 30.00,59.30 32.17,58.92 L 57.83,54.48 Q 60.00,54.10 61.98,53.15 L 85.02,42.05 Q 87.00,41.10 89.18,40.84 L 138.82,34.86 Q 141.00,34.60 143.00,35.51 L 159.00,42.79 Q 161.00,43.70 162.39,45.40 L 176.61,62.80 Q 178.00,64.50 179.91,65.59 L 192.09,72.51 Q 194.00,73.60 193.48,75.74 L 188.52,96.16 Q 188.00,98.30 186.30,99.70 L 170.70,112.50 Q 169.00,113.90 166.81,114.05 L 134.19,116.35 Q 132.00,116.50 130.49,118.10 L 122.51,126.60 Q 121.00,128.20 118.81,128.04 L 88.19,125.76 Q 86.00,125.60 84.11,126.73 L 74.89,132.27 Q 73.00,133.40 71.12,132.26 L 42.88,115.04 Q 41.00,113.90 39.59,112.21 Z" fill="none" stroke="#244EFF" stroke-width="1.1" stroke-opacity="1" stroke-linecap="round" stroke-linejoin="round"/></g></g></svg>