<svg xmlns="http://www.w3.org/2000/svg" width="640" height="560" viewBox="0 0 640 560" role="img" aria-labelledby="title desc">
  <title id="title">Koralli coral: fan</title>
  <desc id="desc">An upward branching coral skeleton traced in fine ink lines with cobalt nodes and occasional coral coloured tips, against sparse drifting particles. Editable vector specimen with a transparent background.</desc>
  <g id="coral-fan">
    <circle cx="451.313" cy="62.433" r="0.919" fill="rgb(255,102,85)" fill-opacity="0.22" stroke="none"/>
    <circle cx="541.669" cy="330.872" r="0.704" fill="rgb(17,17,17)" fill-opacity="0.101" stroke="none"/>
    <circle cx="41.796" cy="442.584" r="1.125" fill="rgb(17,17,17)" fill-opacity="0.185" stroke="none"/>
    <circle cx="116.248" cy="181.118" r="0.901" fill="rgb(17,17,17)" fill-opacity="0.14" stroke="none"/>
    <circle cx="439.146" cy="15.193" r="0.93" fill="rgb(17,17,17)" fill-opacity="0.146" stroke="none"/>
    <circle cx="188.631" cy="127.924" r="1.143" fill="rgb(17,17,17)" fill-opacity="0.189" stroke="none"/>
    <circle cx="427.151" cy="491.886" r="1.216" fill="rgb(17,17,17)" fill-opacity="0.203" stroke="none"/>
    <circle cx="549.146" cy="3.252" r="1.128" fill="rgb(17,17,17)" fill-opacity="0.186" stroke="none"/>
    <circle cx="530.667" cy="11.902" r="1.056" fill="rgb(17,17,17)" fill-opacity="0.171" stroke="none"/>
    <circle cx="220.134" cy="359.2" r="1.198" fill="rgb(17,17,17)" fill-opacity="0.2" stroke="none"/>
    <circle cx="560.617" cy="38.123" r="1.244" fill="rgb(17,17,17)" fill-opacity="0.209" stroke="none"/>
    <circle cx="545.668" cy="110.023" r="0.73" fill="rgb(17,17,17)" fill-opacity="0.106" stroke="none"/>
    <circle cx="603.627" cy="45.976" r="1.082" fill="rgb(17,17,17)" fill-opacity="0.176" stroke="none"/>
    <circle cx="46.982" cy="35.867" r="0.844" fill="rgb(17,17,17)" fill-opacity="0.129" stroke="none"/>
    <circle cx="58.898" cy="227.727" r="0.869" fill="rgb(17,17,17)" fill-opacity="0.134" stroke="none"/>
    <circle cx="462.513" cy="309.06" r="1.181" fill="rgb(17,17,17)" fill-opacity="0.196" stroke="none"/>
    <circle cx="570.84" cy="480.394" r="1.104" fill="rgb(17,17,17)" fill-opacity="0.181" stroke="none"/>
    <circle cx="430.464" cy="384.733" r="0.838" fill="rgb(17,17,17)" fill-opacity="0.128" stroke="none"/>
    <circle cx="49.163" cy="353.229" r="0.822" fill="rgb(17,17,17)" fill-opacity="0.124" stroke="none"/>
    <circle cx="461.751" cy="82.817" r="0.723" fill="rgb(255,102,85)" fill-opacity="0.184" stroke="none"/>
    <circle cx="313.313" cy="518.294" r="0.96" fill="rgb(17,17,17)" fill-opacity="0.152" stroke="none"/>
    <circle cx="184.997" cy="457.444" r="1.164" fill="rgb(17,17,17)" fill-opacity="0.193" stroke="none"/>
    <circle cx="463.199" cy="35.349" r="1.197" fill="rgb(17,17,17)" fill-opacity="0.199" stroke="none"/>
    <circle cx="583.671" cy="159.377" r="0.868" fill="rgb(17,17,17)" fill-opacity="0.134" stroke="none"/>
    <circle cx="392.698" cy="212.121" r="0.7" fill="rgb(17,17,17)" fill-opacity="0.1" stroke="none"/>
    <circle cx="142.055" cy="492.302" r="0.96" fill="rgb(17,17,17)" fill-opacity="0.152" stroke="none"/>
    <circle cx="499.684" cy="402.614" r="1.138" fill="rgb(17,17,17)" fill-opacity="0.188" stroke="none"/>
    <circle cx="335.174" cy="540.688" r="0.984" fill="rgb(17,17,17)" fill-opacity="0.157" stroke="none"/>
    <circle cx="165.52" cy="436.287" r="0.85" fill="rgb(17,17,17)" fill-opacity="0.13" stroke="none"/>
    <circle cx="553.457" cy="156.145" r="0.922" fill="rgb(17,17,17)" fill-opacity="0.144" stroke="none"/>
    <circle cx="111.532" cy="177.545" r="1.165" fill="rgb(17,17,17)" fill-opacity="0.193" stroke="none"/>
    <circle cx="458.205" cy="49" r="0.894" fill="rgb(17,17,17)" fill-opacity="0.139" stroke="none"/>
    <circle cx="83.861" cy="54.236" r="0.727" fill="rgb(17,17,17)" fill-opacity="0.105" stroke="none"/>
    <circle cx="377.646" cy="218.079" r="1.19" fill="rgb(17,17,17)" fill-opacity="0.198" stroke="none"/>
    <circle cx="262.569" cy="92.59" r="1.052" fill="rgb(17,17,17)" fill-opacity="0.17" stroke="none"/>
    <circle cx="224.615" cy="571.635" r="0.721" fill="rgb(17,17,17)" fill-opacity="0.104" stroke="none"/>
    <circle cx="219.598" cy="322.137" r="1.339" fill="rgb(17,17,17)" fill-opacity="0.228" stroke="none"/>
    <circle cx="466.558" cy="542.279" r="0.878" fill="rgb(17,17,17)" fill-opacity="0.136" stroke="none"/>
    <circle cx="349.664" cy="223.958" r="0.8" fill="rgb(255,102,85)" fill-opacity="0.198" stroke="none"/>
    <circle cx="198.927" cy="239.821" r="0.735" fill="rgb(17,17,17)" fill-opacity="0.107" stroke="none"/>
    <circle cx="81.711" cy="192.386" r="1.103" fill="rgb(17,17,17)" fill-opacity="0.181" stroke="none"/>
    <circle cx="96.356" cy="194.241" r="0.882" fill="rgb(17,17,17)" fill-opacity="0.136" stroke="none"/>
    <circle cx="536.992" cy="237.17" r="1.085" fill="rgb(17,17,17)" fill-opacity="0.177" stroke="none"/>
    <circle cx="121.997" cy="24.08" r="1.197" fill="rgb(17,17,17)" fill-opacity="0.199" stroke="none"/>
    <circle cx="339.846" cy="148.951" r="1.321" fill="rgb(17,17,17)" fill-opacity="0.224" stroke="none"/>
    <circle cx="311.478" cy="397.197" r="0.924" fill="rgb(17,17,17)" fill-opacity="0.145" stroke="none"/>
    <circle cx="334.073" cy="409.945" r="0.936" fill="rgb(17,17,17)" fill-opacity="0.147" stroke="none"/>
    <circle cx="188.602" cy="365.919" r="1.159" fill="rgb(17,17,17)" fill-opacity="0.192" stroke="none"/>
    <circle cx="254.042" cy="313.186" r="1.1" fill="rgb(17,17,17)" fill-opacity="0.18" stroke="none"/>
    <circle cx="485.952" cy="512.355" r="0.973" fill="rgb(17,17,17)" fill-opacity="0.155" stroke="none"/>
    <circle cx="56.391" cy="526.057" r="0.94" fill="rgb(17,17,17)" fill-opacity="0.148" stroke="none"/>
    <circle cx="509.628" cy="193.3" r="1.311" fill="rgb(17,17,17)" fill-opacity="0.222" stroke="none"/>
    <circle cx="65.636" cy="456.907" r="1.21" fill="rgb(17,17,17)" fill-opacity="0.202" stroke="none"/>
    <circle cx="247.025" cy="268.895" r="0.722" fill="rgb(17,17,17)" fill-opacity="0.104" stroke="none"/>
    <circle cx="255.556" cy="20.424" r="0.997" fill="rgb(17,17,17)" fill-opacity="0.159" stroke="none"/>
    <circle cx="251.55" cy="457.067" r="0.948" fill="rgb(17,17,17)" fill-opacity="0.15" stroke="none"/>
    <circle cx="526.986" cy="13.586" r="0.736" fill="rgb(17,17,17)" fill-opacity="0.107" stroke="none"/>
    <circle cx="501.192" cy="517.4" r="0.774" fill="rgb(255,102,85)" fill-opacity="0.194" stroke="none"/>
    <circle cx="298.188" cy="372.856" r="0.894" fill="rgb(17,17,17)" fill-opacity="0.139" stroke="none"/>
    <circle cx="501.219" cy="379.471" r="0.99" fill="rgb(17,17,17)" fill-opacity="0.158" stroke="none"/>
    <circle cx="598.549" cy="15.029" r="1.314" fill="rgb(17,17,17)" fill-opacity="0.223" stroke="none"/>
    <circle cx="356.8" cy="442.967" r="1.25" fill="rgb(17,17,17)" fill-opacity="0.16" stroke="none"/>
    <circle cx="346.064" cy="375.724" r="1.25" fill="rgb(17,17,17)" fill-opacity="0.16" stroke="none"/>
    <circle cx="339.8" cy="311.857" r="1.25" fill="rgb(17,17,17)" fill-opacity="0.16" stroke="none"/>
    <circle cx="351.136" cy="248.185" r="1.25" fill="rgb(17,17,17)" fill-opacity="0.16" stroke="none"/>
    <circle cx="328.357" cy="187.817" r="1.25" fill="rgb(17,17,17)" fill-opacity="0.16" stroke="none"/>
    <circle cx="340.897" cy="127.416" r="1.25" fill="rgb(17,17,17)" fill-opacity="0.16" stroke="none"/>
    <circle cx="261.261" cy="334.986" r="1.25" fill="rgb(17,17,17)" fill-opacity="0.16" stroke="none"/>
    <circle cx="194.31" cy="286.992" r="1.25" fill="rgb(17,17,17)" fill-opacity="0.16" stroke="none"/>
    <circle cx="145.009" cy="232.468" r="1.25" fill="rgb(17,17,17)" fill-opacity="0.16" stroke="none"/>
    <circle cx="99.973" cy="197.083" r="1.25" fill="rgb(17,17,17)" fill-opacity="0.16" stroke="none"/>
    <circle cx="166.928" cy="174.592" r="1.25" fill="rgb(17,17,17)" fill-opacity="0.16" stroke="none"/>
    <circle cx="157.217" cy="126.766" r="1.25" fill="rgb(17,17,17)" fill-opacity="0.16" stroke="none"/>
    <circle cx="257.049" cy="245.097" r="1.25" fill="rgb(17,17,17)" fill-opacity="0.16" stroke="none"/>
    <circle cx="238.757" cy="187.926" r="1.25" fill="rgb(17,17,17)" fill-opacity="0.16" stroke="none"/>
    <circle cx="251.469" cy="137.051" r="1.25" fill="rgb(17,17,17)" fill-opacity="0.16" stroke="none"/>
    <circle cx="212.103" cy="213.668" r="1.25" fill="rgb(17,17,17)" fill-opacity="0.16" stroke="none"/>
    <circle cx="436.003" cy="331.589" r="1.25" fill="rgb(17,17,17)" fill-opacity="0.16" stroke="none"/>
    <circle cx="503.453" cy="277.042" r="1.25" fill="rgb(17,17,17)" fill-opacity="0.16" stroke="none"/>
    <circle cx="561.584" cy="219.348" r="1.25" fill="rgb(17,17,17)" fill-opacity="0.16" stroke="none"/>
    <circle cx="592.567" cy="177.781" r="1.25" fill="rgb(17,17,17)" fill-opacity="0.16" stroke="none"/>
    <circle cx="520.676" cy="161.952" r="1.25" fill="rgb(17,17,17)" fill-opacity="0.16" stroke="none"/>
    <circle cx="524.396" cy="117.53" r="1.25" fill="rgb(17,17,17)" fill-opacity="0.16" stroke="none"/>
    <circle cx="436.241" cy="242.285" r="1.25" fill="rgb(17,17,17)" fill-opacity="0.16" stroke="none"/>
    <circle cx="458.167" cy="178.576" r="1.25" fill="rgb(17,17,17)" fill-opacity="0.16" stroke="none"/>
    <circle cx="439.457" cy="127.432" r="1.25" fill="rgb(17,17,17)" fill-opacity="0.16" stroke="none"/>
    <circle cx="400.103" cy="194.226" r="1.25" fill="rgb(17,17,17)" fill-opacity="0.16" stroke="none"/>
    <circle cx="395.093" cy="152.447" r="1.25" fill="rgb(17,17,17)" fill-opacity="0.16" stroke="none"/>
    <path d="M 356.8 442.967 L 346.064 375.724" fill="none" stroke="rgb(17,17,17)" stroke-opacity="0.6" stroke-width="1.12" stroke-linecap="round" stroke-linejoin="round"/>
    <path d="M 346.064 375.724 L 339.8 311.857" fill="none" stroke="rgb(17,17,17)" stroke-opacity="0.6" stroke-width="1.12" stroke-linecap="round" stroke-linejoin="round"/>
    <path d="M 339.8 311.857 L 351.136 248.185" fill="none" stroke="rgb(17,17,17)" stroke-opacity="0.6" stroke-width="1.12" stroke-linecap="round" stroke-linejoin="round"/>
    <path d="M 351.136 248.185 L 328.357 187.817" fill="none" stroke="rgb(17,17,17)" stroke-opacity="0.6" stroke-width="1.12" stroke-linecap="round" stroke-linejoin="round"/>
    <path d="M 328.357 187.817 L 340.897 127.416" fill="none" stroke="rgb(17,17,17)" stroke-opacity="0.6" stroke-width="1.12" stroke-linecap="round" stroke-linejoin="round"/>
    <path d="M 346.064 375.724 L 261.261 334.986" fill="none" stroke="rgb(17,17,17)" stroke-opacity="0.6" stroke-width="1.12" stroke-linecap="round" stroke-linejoin="round"/>
    <path d="M 261.261 334.986 L 194.31 286.992" fill="none" stroke="rgb(17,17,17)" stroke-opacity="0.6" stroke-width="1.12" stroke-linecap="round" stroke-linejoin="round"/>
    <path d="M 194.31 286.992 L 145.009 232.468" fill="none" stroke="rgb(17,17,17)" stroke-opacity="0.6" stroke-width="1.12" stroke-linecap="round" stroke-linejoin="round"/>
    <path d="M 145.009 232.468 L 99.973 197.083" fill="none" stroke="rgb(17,17,17)" stroke-opacity="0.6" stroke-width="1.12" stroke-linecap="round" stroke-linejoin="round"/>
    <path d="M 145.009 232.468 L 166.928 174.592" fill="none" stroke="rgb(17,17,17)" stroke-opacity="0.6" stroke-width="1.12" stroke-linecap="round" stroke-linejoin="round"/>
    <path d="M 166.928 174.592 L 157.217 126.766" fill="none" stroke="rgb(17,17,17)" stroke-opacity="0.6" stroke-width="1.12" stroke-linecap="round" stroke-linejoin="round"/>
    <path d="M 339.8 311.857 L 257.049 245.097" fill="none" stroke="rgb(17,17,17)" stroke-opacity="0.6" stroke-width="1.12" stroke-linecap="round" stroke-linejoin="round"/>
    <path d="M 257.049 245.097 L 238.757 187.926" fill="none" stroke="rgb(17,17,17)" stroke-opacity="0.6" stroke-width="1.12" stroke-linecap="round" stroke-linejoin="round"/>
    <path d="M 238.757 187.926 L 251.469 137.051" fill="none" stroke="rgb(17,17,17)" stroke-opacity="0.6" stroke-width="1.12" stroke-linecap="round" stroke-linejoin="round"/>
    <path d="M 257.049 245.097 L 212.103 213.668" fill="none" stroke="rgb(17,17,17)" stroke-opacity="0.6" stroke-width="1.12" stroke-linecap="round" stroke-linejoin="round"/>
    <path d="M 346.064 375.724 L 436.003 331.589" fill="none" stroke="rgb(17,17,17)" stroke-opacity="0.6" stroke-width="1.12" stroke-linecap="round" stroke-linejoin="round"/>
    <path d="M 436.003 331.589 L 503.453 277.042" fill="none" stroke="rgb(17,17,17)" stroke-opacity="0.6" stroke-width="1.12" stroke-linecap="round" stroke-linejoin="round"/>
    <path d="M 503.453 277.042 L 561.584 219.348" fill="none" stroke="rgb(17,17,17)" stroke-opacity="0.6" stroke-width="1.12" stroke-linecap="round" stroke-linejoin="round"/>
    <path d="M 561.584 219.348 L 592.567 177.781" fill="none" stroke="rgb(17,17,17)" stroke-opacity="0.6" stroke-width="1.12" stroke-linecap="round" stroke-linejoin="round"/>
    <path d="M 561.584 219.348 L 520.676 161.952" fill="none" stroke="rgb(17,17,17)" stroke-opacity="0.6" stroke-width="1.12" stroke-linecap="round" stroke-linejoin="round"/>
    <path d="M 520.676 161.952 L 524.396 117.53" fill="none" stroke="rgb(17,17,17)" stroke-opacity="0.6" stroke-width="1.12" stroke-linecap="round" stroke-linejoin="round"/>
    <path d="M 339.8 311.857 L 436.241 242.285" fill="none" stroke="rgb(17,17,17)" stroke-opacity="0.6" stroke-width="1.12" stroke-linecap="round" stroke-linejoin="round"/>
    <path d="M 436.241 242.285 L 458.167 178.576" fill="none" stroke="rgb(17,17,17)" stroke-opacity="0.6" stroke-width="1.12" stroke-linecap="round" stroke-linejoin="round"/>
    <path d="M 458.167 178.576 L 439.457 127.432" fill="none" stroke="rgb(17,17,17)" stroke-opacity="0.6" stroke-width="1.12" stroke-linecap="round" stroke-linejoin="round"/>
    <path d="M 351.136 248.185 L 400.103 194.226" fill="none" stroke="rgb(17,17,17)" stroke-opacity="0.6" stroke-width="1.12" stroke-linecap="round" stroke-linejoin="round"/>
    <path d="M 400.103 194.226 L 395.093 152.447" fill="none" stroke="rgb(17,17,17)" stroke-opacity="0.6" stroke-width="1.12" stroke-linecap="round" stroke-linejoin="round"/>
    <circle cx="356.8" cy="442.967" r="3.1" fill="rgb(36,78,255)" fill-opacity="0.95" stroke="none"/>
    <circle cx="346.064" cy="375.724" r="2.8" fill="rgb(36,78,255)" fill-opacity="0.95" stroke="none"/>
    <circle cx="339.8" cy="311.857" r="2.8" fill="rgb(36,78,255)" fill-opacity="0.95" stroke="none"/>
    <circle cx="351.136" cy="248.185" r="2.8" fill="rgb(36,78,255)" fill-opacity="0.95" stroke="none"/>
    <circle cx="328.357" cy="187.817" r="2.3" fill="rgb(36,78,255)" fill-opacity="0.95" stroke="none"/>
    <circle cx="340.897" cy="127.416" r="2.3" fill="rgb(36,78,255)" fill-opacity="0.95" stroke="none"/>
    <circle cx="261.261" cy="334.986" r="2.3" fill="rgb(36,78,255)" fill-opacity="0.95" stroke="none"/>
    <circle cx="194.31" cy="286.992" r="2.3" fill="rgb(36,78,255)" fill-opacity="0.95" stroke="none"/>
    <circle cx="145.009" cy="232.468" r="2.8" fill="rgb(36,78,255)" fill-opacity="0.95" stroke="none"/>
    <circle cx="99.973" cy="197.083" r="2.3" fill="rgb(36,78,255)" fill-opacity="0.95" stroke="none"/>
    <circle cx="166.928" cy="174.592" r="2.3" fill="rgb(36,78,255)" fill-opacity="0.95" stroke="none"/>
    <circle cx="157.217" cy="126.766" r="2.3" fill="rgb(36,78,255)" fill-opacity="0.95" stroke="none"/>
    <circle cx="257.049" cy="245.097" r="2.8" fill="rgb(36,78,255)" fill-opacity="0.95" stroke="none"/>
    <circle cx="238.757" cy="187.926" r="2.3" fill="rgb(36,78,255)" fill-opacity="0.95" stroke="none"/>
    <circle cx="251.469" cy="137.051" r="2.3" fill="rgb(36,78,255)" fill-opacity="0.95" stroke="none"/>
    <circle cx="212.103" cy="213.668" r="2.3" fill="rgb(36,78,255)" fill-opacity="0.95" stroke="none"/>
    <circle cx="436.003" cy="331.589" r="2.3" fill="rgb(36,78,255)" fill-opacity="0.95" stroke="none"/>
    <circle cx="503.453" cy="277.042" r="2.3" fill="rgb(36,78,255)" fill-opacity="0.95" stroke="none"/>
    <circle cx="561.584" cy="219.348" r="2.8" fill="rgb(36,78,255)" fill-opacity="0.95" stroke="none"/>
    <circle cx="592.567" cy="177.781" r="2.3" fill="rgb(255,102,85)" fill-opacity="0.95" stroke="none"/>
    <circle cx="520.676" cy="161.952" r="2.3" fill="rgb(36,78,255)" fill-opacity="0.95" stroke="none"/>
    <circle cx="524.396" cy="117.53" r="2.3" fill="rgb(36,78,255)" fill-opacity="0.95" stroke="none"/>
    <circle cx="436.241" cy="242.285" r="2.3" fill="rgb(36,78,255)" fill-opacity="0.95" stroke="none"/>
    <circle cx="458.167" cy="178.576" r="2.3" fill="rgb(36,78,255)" fill-opacity="0.95" stroke="none"/>
    <circle cx="439.457" cy="127.432" r="2.3" fill="rgb(36,78,255)" fill-opacity="0.95" stroke="none"/>
    <circle cx="400.103" cy="194.226" r="2.3" fill="rgb(36,78,255)" fill-opacity="0.95" stroke="none"/>
    <circle cx="395.093" cy="152.447" r="2.3" fill="rgb(36,78,255)" fill-opacity="0.95" stroke="none"/>
    <text x="356.8" y="464.967" fill="rgb(17,17,17)" fill-opacity="0.44" font-family="&quot;IBM Plex Mono&quot;, monospace" font-size="8" font-weight="400" text-anchor="middle" dominant-baseline="text-before-edge">02 / FAN</text>
  </g>
</svg>
